<svg version="1.1" id="Layer_1" xmlns="http://www.w3.org/2000/svg" xmlns:xlink="http://www.w3.org/1999/xlink" x="0px" y="0px"
	 width="100px" height="200px" viewBox="0 0 500 500" enable-background="new 0 0 500 500" xml:space="preserve" rx="20" ry="20">
<path fill="#FFFFFF" opacity="1.000000" stroke="none" 
	d="
M321.000000,501.000000 
	C214.000031,501.000000 107.500053,501.000000 1.000057,501.000000 
	C1.000038,334.333405 1.000038,167.666794 1.000019,1.000147 
	C167.666565,1.000098 334.333130,1.000098 500.999756,1.000049 
	C500.999847,167.666519 500.999847,334.333038 500.999939,500.999786 
	C441.166656,501.000000 381.333344,501.000000 321.000000,501.000000 
M236.360626,272.605377 
	C239.016800,272.657898 241.672989,272.710449 243.953018,273.378021 
	C241.827988,275.657867 239.702942,277.937714 237.675293,280.113098 
	C250.961151,293.524841 264.046509,306.573975 276.872498,319.873199 
	C278.582977,321.646790 279.670074,324.639374 279.846466,327.151642 
	C280.271027,333.199036 279.983978,339.296387 279.983978,345.356110 
	C293.507690,345.356110 306.255981,345.356110 319.598969,345.356110 
	C319.598969,334.281830 319.408722,323.497772 319.691803,312.726135 
	C319.806427,308.364105 318.466339,305.288452 315.361542,302.231445 
	C305.524628,292.545898 296.000641,282.542511 287.372986,272.621521 
	C314.473572,272.621521 341.574158,272.621521 368.784973,272.621521 
	C368.784973,258.063416 368.784973,243.881958 368.784973,229.390442 
	C366.282410,229.390442 364.137238,229.395035 361.992065,229.389740 
	C334.207703,229.321106 306.423340,229.251068 279.020416,228.578583 
	C291.480896,216.081100 303.960266,203.602341 316.372437,191.057068 
	C317.609863,189.806396 319.280334,188.173141 319.319916,186.679550 
	C319.582947,176.754547 319.456177,166.819199 319.456177,156.639328 
	C306.062988,156.639328 293.180603,156.639328 281.340424,156.639328 
	C279.918793,160.510864 279.595428,164.592178 277.399170,166.858658 
	C261.875031,182.879150 245.970764,198.531448 230.168488,214.281845 
	C229.340454,215.107162 228.337173,215.756653 226.789703,216.984543 
	C226.789703,196.329437 226.789703,176.571381 226.789703,156.719696 
	C211.925903,156.719696 197.389297,156.719696 182.394226,156.719696 
	C182.394226,159.052643 182.401825,161.020538 182.393051,162.988388 
	C182.294418,185.123047 182.193253,207.257721 181.138580,229.391525 
	C165.192474,229.391525 149.246384,229.391525 133.078247,229.391525 
	C133.078247,243.949875 133.078247,258.025818 133.078247,272.607605 
	C149.538620,272.607605 165.815613,272.607605 182.337112,273.569580 
	C182.337112,297.485291 182.337112,321.401001 182.337112,345.391541 
	C197.675888,345.391541 212.110764,345.391541 227.007004,345.391541 
	C227.007004,343.511108 227.007004,341.882416 227.007004,340.253754 
	C227.007019,323.421722 227.494904,306.569214 226.790527,289.766693 
	C226.463699,281.970795 229.119827,276.790863 235.284363,272.756165 
	C235.284363,272.756165 235.358063,272.586243 236.360626,272.605377 
M244.500000,354.962372 
	C223.889633,354.962372 203.279266,354.962372 182.441437,354.962372 
	C182.441437,368.293427 182.441437,381.185516 182.441437,394.347412 
	C244.710648,394.347412 306.735596,394.347412 369.082153,394.347412 
	C369.082153,356.820465 369.082153,319.559906 369.082153,282.240448 
	C356.014832,282.240448 343.114288,282.240448 329.791595,282.240448 
	C329.791595,306.573578 329.791595,330.631622 329.791595,354.962372 
	C301.411469,354.962372 273.455719,354.962372 244.500000,354.962372 
M260.500000,147.037811 
	C279.954559,147.037811 299.409088,147.037811 319.043579,147.037811 
	C319.043579,133.700577 319.043579,120.790222 319.043579,107.638542 
	C256.926849,107.638542 195.038254,107.638542 132.741516,107.638542 
	C132.741516,145.139206 132.741516,182.384323 132.741516,219.782288 
	C145.947311,219.782288 158.843155,219.782288 172.173737,219.782288 
	C172.173737,195.465164 172.173737,171.399948 172.173737,147.037811 
	C201.572556,147.037811 230.536270,147.037811 260.500000,147.037811 
M342.516327,107.380974 
	C338.395630,107.380974 334.274963,107.380974 330.043335,107.380974 
	C330.043335,134.334869 330.043335,160.744171 330.043335,187.241516 
	C343.148193,187.241516 356.004944,187.241516 368.745636,187.241516 
	C368.745636,160.475494 368.745636,134.088226 368.745636,107.381004 
	C360.115845,107.381004 351.813965,107.381004 342.516327,107.380974 
M163.423645,314.380981 
	C153.323410,314.380981 143.223175,314.380981 133.127563,314.380981 
	C133.127563,341.408905 133.127563,367.811005 133.127563,394.381958 
	C146.160431,394.381958 158.909348,394.381958 171.717743,394.381958 
	C171.717743,367.641632 171.717743,341.140259 171.717743,314.381012 
	C169.021500,314.381012 166.708389,314.381012 163.423645,314.380981 
z"/>
<path fill="#0489EC" opacity="1.000000" stroke="none" 
	d="
M182.092773,229.392380 
	C182.193253,207.257721 182.294418,185.123047 182.393051,162.988388 
	C182.401825,161.020538 182.394226,159.052643 182.394226,156.719696 
	C197.389297,156.719696 211.925903,156.719696 226.789703,156.719696 
	C226.789703,176.571381 226.789703,196.329437 226.789703,216.984543 
	C228.337173,215.756653 229.340454,215.107162 230.168488,214.281845 
	C245.970764,198.531448 261.875031,182.879150 277.399170,166.858658 
	C279.595428,164.592178 279.918793,160.510864 281.340424,156.639328 
	C293.180603,156.639328 306.062988,156.639328 319.456177,156.639328 
	C319.456177,166.819199 319.582947,176.754547 319.319916,186.679550 
	C319.280334,188.173141 317.609863,189.806396 316.372437,191.057068 
	C303.960266,203.602341 291.480896,216.081100 278.654846,229.130096 
	C264.049377,243.838425 249.809464,257.995239 235.458481,272.196167 
	C235.347412,272.240265 235.128387,272.659698 235.128387,272.659698 
	C229.119827,276.790863 226.463699,281.970795 226.790527,289.766693 
	C227.494904,306.569214 227.007019,323.421722 227.007004,340.253754 
	C227.007004,341.882416 227.007004,343.511108 227.007004,345.391541 
	C212.110764,345.391541 197.675888,345.391541 182.337112,345.391541 
	C182.337112,321.401001 182.337112,297.485291 182.282288,272.649445 
	C182.182556,257.617004 182.137665,243.504684 182.092773,229.392380 
z"/>
<path fill="#121212" opacity="1.000000" stroke="none" 
	d="
M245.000000,354.962372 
	C273.455719,354.962372 301.411469,354.962372 329.791595,354.962372 
	C329.791595,330.631622 329.791595,306.573578 329.791595,282.240448 
	C343.114288,282.240448 356.014832,282.240448 369.082153,282.240448 
	C369.082153,319.559906 369.082153,356.820465 369.082153,394.347412 
	C306.735596,394.347412 244.710648,394.347412 182.441437,394.347412 
	C182.441437,381.185516 182.441437,368.293427 182.441437,354.962372 
	C203.279266,354.962372 223.889633,354.962372 245.000000,354.962372 
z"/>
<path fill="#121212" opacity="1.000000" stroke="none" 
	d="
M260.000000,147.037811 
	C230.536270,147.037811 201.572556,147.037811 172.173737,147.037811 
	C172.173737,171.399948 172.173737,195.465164 172.173737,219.782288 
	C158.843155,219.782288 145.947311,219.782288 132.741516,219.782288 
	C132.741516,182.384323 132.741516,145.139206 132.741516,107.638542 
	C195.038254,107.638542 256.926849,107.638542 319.043579,107.638542 
	C319.043579,120.790222 319.043579,133.700577 319.043579,147.037811 
	C299.409088,147.037811 279.954559,147.037811 260.000000,147.037811 
z"/>
<path fill="#101010" opacity="1.000000" stroke="none" 
	d="
M235.569550,272.152039 
	C249.809464,257.995239 264.049377,243.838425 278.464142,229.431519 
	C306.423340,229.251068 334.207703,229.321106 361.992065,229.389740 
	C364.137238,229.395035 366.282410,229.390442 368.784973,229.390442 
	C368.784973,243.881958 368.784973,258.063416 368.784973,272.621521 
	C341.574158,272.621521 314.473572,272.621521 286.690765,272.434204 
	C279.114777,265.700806 272.220978,259.154724 263.930145,251.282074 
	C257.242279,258.611328 250.785690,265.687134 244.329132,272.762970 
	C241.672989,272.710449 239.016800,272.657898 236.031738,272.543518 
	C235.702850,272.481628 235.569550,272.152039 235.569550,272.152039 
z"/>
<path fill="#0689EB" opacity="1.000000" stroke="none" 
	d="
M244.141052,273.070496 
	C250.785690,265.687134 257.242279,258.611328 263.930145,251.282074 
	C272.220978,259.154724 279.114777,265.700806 286.182098,272.454468 
	C296.000641,282.542511 305.524628,292.545898 315.361542,302.231445 
	C318.466339,305.288452 319.806427,308.364105 319.691803,312.726135 
	C319.408722,323.497772 319.598969,334.281830 319.598969,345.356110 
	C306.255981,345.356110 293.507690,345.356110 279.983978,345.356110 
	C279.983978,339.296387 280.271027,333.199036 279.846466,327.151642 
	C279.670074,324.639374 278.582977,321.646790 276.872498,319.873199 
	C264.046509,306.573975 250.961151,293.524841 237.675293,280.113098 
	C239.702942,277.937714 241.827988,275.657867 244.141052,273.070496 
z"/>
<path fill="#131313" opacity="1.000000" stroke="none" 
	d="
M343.014221,107.380989 
	C351.813965,107.381004 360.115845,107.381004 368.745636,107.381004 
	C368.745636,134.088226 368.745636,160.475494 368.745636,187.241516 
	C356.004944,187.241516 343.148193,187.241516 330.043335,187.241516 
	C330.043335,160.744171 330.043335,134.334869 330.043335,107.380974 
	C334.274963,107.380974 338.395630,107.380974 343.014221,107.380989 
z"/>
<path fill="#131313" opacity="1.000000" stroke="none" 
	d="
M163.909470,314.380981 
	C166.708389,314.381012 169.021500,314.381012 171.717743,314.381012 
	C171.717743,341.140259 171.717743,367.641632 171.717743,394.381958 
	C158.909348,394.381958 146.160431,394.381958 133.127563,394.381958 
	C133.127563,367.811005 133.127563,341.408905 133.127563,314.380981 
	C143.223175,314.380981 153.323410,314.380981 163.909470,314.380981 
z"/>
<path fill="#101010" opacity="1.000000" stroke="none" 
	d="
M181.615677,229.391953 
	C182.137665,243.504684 182.182556,257.617004 182.160034,272.168457 
	C165.815613,272.607605 149.538620,272.607605 133.078247,272.607605 
	C133.078247,258.025818 133.078247,243.949875 133.078247,229.391525 
	C149.246384,229.391525 165.192474,229.391525 181.615677,229.391953 
z"/>
<path fill="#0689EB" opacity="1.000000" stroke="none" 
	d="
M235.458481,272.196167 
	C235.569550,272.152039 235.702850,272.481628 235.530457,272.533936 
	C235.358063,272.586243 235.284363,272.756165 235.206375,272.707947 
	C235.128387,272.659698 235.347412,272.240265 235.458481,272.196167 
z"/>
</svg>